<svg xmlns="http://www.w3.org/2000/svg" viewBox="0 0 209.84 238.52"><defs><style>.cls-1{fill:#ff4c46;}.cls-2{fill:#fff;}</style></defs><g id="Owl_Body" data-name="Owl Body"><path class="cls-1" d="M147.32,211.46h.7l0,0a76.56,76.56,0,0,1,7.51,11c3,5,6.15,10.23,10.66,14.06,1.06.91,2.48,1.92,4,1.79a2.63,2.63,0,0,0,2-1.43,1.61,1.61,0,0,0,0-1.62l-.43-.68.64.49a8.2,8.2,0,0,0,2.94,1.49,2.52,2.52,0,0,0,2.72-1c.58-1,0-2.34-.56-3.27-1.71-2.73-4.26-4.85-6.73-6.89-1.2-1-2.43-2-3.56-3.11a31.32,31.32,0,0,1-5.71-7.44l-.22-.39.4.19a209,209,0,0,0,25.3,9.84c1.68.53,3.6,1,5.14.21a2.74,2.74,0,0,0,1.28-2.55,1.58,1.58,0,0,0-.84-1.36l-.19-.07.1-.27.21.08a40.11,40.11,0,0,0,8.73,2l.13,0c1.11.17,4.82.53,5.75-1.88.74-1.9-1-3.82-1.56-4.36h0a24.07,24.07,0,0,0-4.89-3.41l-.14-.08-2.66-1.55c-4.83-2.79-9.83-5.68-14.51-8.91a2.76,2.76,0,0,1-.48.25l-.22.08a4.47,4.47,0,0,1-3.69-.74c-5.38-3.18-9.07-9.69-12-14.92l-.12-.22c-.82-1.45-1.61-3-2.36-4.6a13.29,13.29,0,0,1-.05,1.44,2.42,2.42,0,0,1-1.86,2.22,2.9,2.9,0,0,1-2.35-.87c-8.17-6.85-12.29-20-15.3-29.64a142,142,0,0,1-5.27-24.25,105.17,105.17,0,0,1-.51-11.69v-.1l.1,0a1.09,1.09,0,0,1,.24-.07,1.07,1.07,0,0,1,.39.07l.08,0,1.19,8.94c.23,2.06.51,4.15.83,6.22l.07.39a139.67,139.67,0,0,0,4.64,20c2.94,9.38,7,22.23,14.71,28.74.41.34.7.5.87.47a.68.68,0,0,0,.35-.58c.31-3.67-1.31-8.92-2.38-12.39-.27-.85-.52-1.67-.75-2.45a.9.9,0,0,1,.6-1.17.94.94,0,0,1,.7.07.93.93,0,0,1,.44.55l0,.06.57,1.86.16.53A79.66,79.66,0,0,0,168.66,186l.13.22c2.85,5,6.4,11.31,11.36,14.24,1,.59,1.74.77,2.28.55a1.62,1.62,0,0,0,.85-1.15V157.79c0-14.51,0-29,0-43.79v-.63c0-8,0-15.6-3.85-22.4a34.62,34.62,0,0,0-16.12-14.12,50.91,50.91,0,0,0-21.74-4.33c-13.55.24-26.71,4.79-39.44,9.19L98.71,82.9c-9.69,3.32-16.22,2.93-20-1.2C75.35,78,72.22,74.2,71.07,69c-.45-2-.75-4.13-1-6.17a54.6,54.6,0,0,0-1.83-9.07c-.8-2.48-2.73-6.84-6.72-8.33-4.15-1.55-8.77.61-12.33,2.67A109,109,0,0,0,4.58,97.42C2.42,102.21,0,108.55.15,115.14A4.54,4.54,0,0,0,1,118c1.48,1.7,4.38.59,6.45-1.15A53.29,53.29,0,0,0,20,101.51l.34-.63-.07.71a61.83,61.83,0,0,0,.88,18.11,10.82,10.82,0,0,0,1.38,4.06A4,4,0,0,0,26,125.69c1.53-.17,2.69-1.5,3.43-2.49a23.91,23.91,0,0,0,4.19-9.2l.12-.56.16.55c1.86,6.4,5.26,15.37,13.1,19.41,4.38,2.25,10,2.53,15.86.78a79.59,79.59,0,0,0,16.49-7.63c.19-6.4,1.12-14.41,6.64-19.82l.89-.89-.67,1.07c-3.66,5.75-5.36,12.66-5,20.52a55.87,55.87,0,0,0,5.41,21.23c8.66,18.44,24.74,32.67,39.33,44.15l.29.22.27.21,0,0c4.51,9.2,11.52,23.37,11.59,23.52l.09.18-.21,0c-5.6.53-13.1,3-17.39,8.24-.54.67-2.24,3-1.13,4.88a3.58,3.58,0,0,0,3.8,1.31,11.42,11.42,0,0,0,3.51-1.66l.45-.28a40.45,40.45,0,0,1,7.32-3.53c3.24-1.18,7.75-2.06,10.84.41a12.61,12.61,0,0,1,1.55,1.55,16.76,16.76,0,0,0,1.17,1.22,3.67,3.67,0,0,0,3.38,1.12,3,3,0,0,0,1.93-2.82,5.77,5.77,0,0,0-1.25-3.45,22.8,22.8,0,0,0-5.58-5.62l-.06,0v-.08s.37-2.93.77-6.66Z"/></g><g id="Owl_Head" data-name="Owl Head"><path class="cls-1" d="M136.78,11.71c-10.15,0-21.4,6.33-29.59,15.67-6,6.77-13.35,25.45-17,35.19a12.44,12.44,0,0,0,2,12.23c6.56,8,20.2,20.94,46.44,20.94,24,0,36.21-10.78,41.9-18.68a17.36,17.36,0,0,0,2.54-15.15c-2.61-8.76-8.06-23.9-16.93-34.32C156.08,15.71,146.92,11.71,136.78,11.71Z"/><path class="cls-2" d="M145.51,36c14.81-10.45,22.92-1.52,27.52,8.41,3.31,7.16,4.56,20.6-6,22.73-8.11,1.64-15.68-6.54-21.29-14.18a1.74,1.74,0,0,0-2.84,0c-3.63,5.07-12.68,20.29-26.4,16.64-13-3.45-15.91-18-10.65-28.11C113.73,26.3,125.33,21.28,145.51,36Zm-2,20.92-5.75,6.84a.72.72,0,0,0,.13,1c1.32,1,4.58,3,7.74,3a16,16,0,0,0,6.88-1.78.72.72,0,0,0,.21-1.12l-7.17-8A1.35,1.35,0,0,0,143.47,56.94Zm-5.68,11.78c1.73,1.86,5.3,5.65,7.4,7.46a1,1,0,0,0,1.39-.09l5.73-6.33a.2.2,0,0,0-.22-.33,16.48,16.48,0,0,1-14-1A.21.21,0,0,0,137.79,68.72Z"/><path class="cls-1" d="M128.63,43.32a9.27,9.27,0,0,1,6.19,2.84c.76.77,2,2.48,1.54,3.67s-2.67-.11-3.38-.36a18.9,18.9,0,0,0-6-1.08c-1.49,0-3,.32-4.47.36-.23,0-.51,0-.61-.22a.57.57,0,0,1,0-.44A6.82,6.82,0,0,1,128.63,43.32Zm28.9.31A7.8,7.8,0,0,0,152,46.47c-.67.77-1.79,2.48-1.36,3.67s2.36-.11,3-.37A15.25,15.25,0,0,1,159,48.7c1.32,0,2.64.32,4,.36.2,0,.44,0,.53-.22a.56.56,0,0,0,0-.44C162.57,45.53,160.25,43.52,157.53,43.63Z"/><path class="cls-1" d="M187.45,38.62a3.44,3.44,0,0,0-1.12,1.55.35.35,0,0,0,.28.44,5.43,5.43,0,0,0,3.37-1.2,88.77,88.77,0,0,0,9.42-6.65c.8-.66,2.11-2.87.35-3-1.39-.13-3,1-3.78,1.5A87.87,87.87,0,0,0,187.45,38.62Z"/><path class="cls-1" d="M194.25,48.84a3.42,3.42,0,0,0-1.77.73.36.36,0,0,0,0,.52,5.46,5.46,0,0,0,3.5.75,92,92,0,0,0,11.51-.71c1-.15,3.3-1.34,1.89-2.41-1.11-.84-3.08-.76-4-.71A88.12,88.12,0,0,0,194.25,48.84Z"/><path class="cls-1" d="M192.94,60.49a3.41,3.41,0,0,0-1.88-.36.36.36,0,0,0-.28.44,5.39,5.39,0,0,0,2.52,2.54,89.45,89.45,0,0,0,10,5.71c.94.43,3.5.68,2.9-1-.46-1.31-2.16-2.33-3-2.79A88.82,88.82,0,0,0,192.94,60.49Z"/><path class="cls-1" d="M142.76,36.07a5.06,5.06,0,0,0,5.71.37l36-21.33a1,1,0,0,0-.58-1.85L144.8,16.77,100.06.12a1.18,1.18,0,0,0-1.14,2Z"/></g></svg>